# xmcd CD database file
#
# Track frame offsets:
#	150
#	23553
#	50194
#	71285
#	91842
#	112721
#	129411
#	149589
#	169520
#	192261
#	210306
#	232085
#	255359
#	287077
#	309751
#	327970
#
# Disc length: 4666 seconds
#
# Revision: 1
# Processed by: cddbd v1.5.1PL2 Copyright (c) Steve Scherf et al.
# Submitted via: CDex 1.60beta1-cs1
#
DISCID=d3123810
DTITLE=Various Artist - Lo mejor de la salsa
DYEAR=1900
DGENRE=Salsa
TTITLE0=Joe Arroyo - En barranquilla me quedo
TTITLE1=Ray Sepulveda and Jhonny Rivera - No vale la pena enamorarse
TTITLE2=La Misma Gente - La chica de chicago
TTITLE3=Titanes - No me vuelvo a enamorar
TTITLE4=Victor Manuell - Por ella
TTITLE5=Hector Lavoe - El dia de mi suerte
TTITLE6=Frankie Ruiz - Mi libertad
TTITLE7=Gran Combo - Me libere
TTITLE8=Puerto Rican Power - Juguete de nadie
TTITLE9=Oscar D Leon - Mi mujer es una bomba
TTITLE10=Los Titanes - Por retenerte
TTITLE11=Frankie Ruiz - Como lo hace
TTITLE12=Roberto Blades - Lagrimas
TTITLE13=Latin Brothers - Fuma el barco
TTITLE14=Antonio C. - Nadie que te quiera
TTITLE15=Los Titanes - Eres mi razon
EXTD=
EXTT0=
EXTT1=
EXTT2=
EXTT3=
EXTT4=
EXTT5=
EXTT6=
EXTT7=
EXTT8=
EXTT9=
EXTT10=
EXTT11=
EXTT12=
EXTT13=
EXTT14=
EXTT15=
PLAYORDER=
